<svg width="38" height="39" viewBox="0 0 38 39" fill="none" xmlns="http://www.w3.org/2000/svg">
<path d="M18.9818 38.1088C29.3045 38.1088 37.8249 29.5884 37.8249 19.2839C37.8249 8.97935 29.2863 0.458984 18.9636 0.458984C8.65902 0.458984 0.15686 8.97935 0.15686 19.2839C0.15686 29.5884 8.67723 38.1088 18.9818 38.1088ZM14.6852 28.6235C14.0116 27.9499 14.048 26.9304 14.6852 26.3114L22.1496 19.3021L14.6852 12.2928C14.0298 11.692 14.048 10.6361 14.7216 9.99888C15.3224 9.41629 16.3055 9.45271 16.9609 10.0535L24.662 17.2812C25.8272 18.3736 25.8272 20.267 24.662 21.3412L16.9609 28.5689C16.3783 29.1333 15.2496 29.1515 14.6852 28.6235Z" fill="#E6F7FD"/>
</svg>
