<svg width="50" height="50" viewBox="0 0 50 50" fill="none" xmlns="http://www.w3.org/2000/svg">
<path d="M25 50C38.6738 50 50 38.698 50 25C50 11.3262 38.6738 0 24.9758 0C11.302 0 0 11.3262 0 25C0 38.698 11.3262 50 25 50ZM12.0039 18.2478C12.0039 17.8122 12.2217 17.425 12.7299 17.1588L23.3785 11.0358C23.9109 10.7212 24.4434 10.5518 24.9758 10.5518C25.5324 10.5518 26.0649 10.7212 26.5973 11.0358L37.2459 17.1588C37.7541 17.425 37.9961 17.8122 37.9961 18.2478C37.9961 18.8529 37.5363 19.4095 36.7619 19.4095H13.2139C12.4637 19.4095 12.0039 18.8529 12.0039 18.2478ZM13.5286 32.2846V31.9942C13.5286 31.4376 13.8916 31.0745 14.4724 31.0745H15.029V23.0881H14.4724C13.8916 23.0881 13.5286 22.7493 13.5286 22.1684V21.878C13.5286 21.273 13.8916 20.9342 14.4966 20.9342H17.5944C18.1752 20.9342 18.5382 21.273 18.5382 21.878V22.1684C18.5382 22.7493 18.1994 23.0881 17.5944 23.0881H17.0862V31.0745H17.5944C18.1994 31.0745 18.5382 31.4376 18.5382 31.9942V32.2846C18.5382 32.8896 18.1994 33.2527 17.5944 33.2527H14.4966C13.8916 33.2527 13.5286 32.8654 13.5286 32.2846ZM19.5547 32.2846V31.9942C19.5547 31.4376 19.8935 31.0745 20.4743 31.0745H21.0068V23.0881H20.4743C19.8935 23.0881 19.5547 22.7493 19.5547 22.1684V21.878C19.5547 21.273 19.9177 20.9342 20.4743 20.9342H23.5721C24.1772 20.9342 24.5644 21.273 24.5644 21.878V22.1684C24.5644 22.7493 24.2014 23.0881 23.5963 23.0881H23.0881V31.0745H23.5963C24.1772 31.0745 24.5644 31.4376 24.5644 31.9942V32.2846C24.5644 32.8896 24.1772 33.2527 23.5721 33.2527H20.4743C19.8935 33.2527 19.5547 32.8896 19.5547 32.2846ZM25.5566 32.2846V31.9942C25.5566 31.4376 25.9197 31.0745 26.5005 31.0745H27.0329V23.0881H26.5005C25.8955 23.0881 25.5566 22.7493 25.5566 22.1684V21.878C25.5566 21.273 25.9197 20.9342 26.5005 20.9342H29.6225C30.1549 20.9342 30.5663 21.273 30.5663 21.878V22.1684C30.5663 22.7493 30.1791 23.0881 29.6225 23.0881H29.09V31.0745H29.6225C30.1791 31.0745 30.5663 31.4376 30.5663 31.9942V32.2846C30.5663 32.8654 30.1791 33.2527 29.6225 33.2527H26.5005C25.9197 33.2527 25.5566 32.8654 25.5566 32.2846ZM31.5344 32.2846V31.9942C31.5344 31.4376 31.8974 31.0745 32.4782 31.0745H33.0349V23.0881H32.4782C31.8974 23.0881 31.5344 22.7493 31.5344 22.1684V21.878C31.5344 21.273 31.8974 20.9342 32.5024 20.9342H35.6002C36.181 20.9342 36.5682 21.273 36.5682 21.878V22.1684C36.5682 22.7493 36.181 23.0881 35.6244 23.0881H35.092V31.0745H35.6244C36.181 31.0745 36.5682 31.4376 36.5682 31.9942V32.2846C36.5682 32.8896 36.181 33.2527 35.6002 33.2527H32.5024C31.8974 33.2527 31.5344 32.8654 31.5344 32.2846ZM11.423 35.9148C11.423 35.2856 11.9313 34.7531 12.5363 34.7531H37.4395C38.0687 34.7531 38.577 35.2856 38.577 35.9148C38.577 36.5683 38.0687 37.0765 37.4395 37.0765H12.5363C11.9313 37.0765 11.423 36.5683 11.423 35.9148Z" fill="#85CCE6"/>
</svg>
